<?xml version="1.0" standalone="no"?>
<!DOCTYPE svg PUBLIC "-//W3C//DTD SVG 20010904//EN"
 "http://www.w3.org/TR/2001/REC-SVG-20010904/DTD/svg10.dtd">
<svg version="1.0" xmlns="http://www.w3.org/2000/svg"
 width="1024.000000pt" height="1024.000000pt" viewBox="0 0 1024.000000 1024.000000"
 preserveAspectRatio="xMidYMid meet">

<g transform="translate(0.000000,1024.000000) scale(0.100000,-0.100000)"
fill="#000000" stroke="none">
<path d="M3773 7870 c-607 -92 -1077 -371 -1483 -880 -265 -333 -456 -747
-589 -1278 -132 -526 -163 -1016 -95 -1492 44 -315 150 -589 311 -805 233
-313 582 -526 978 -595 187 -33 481 -28 675 11 82 16 222 57 291 85 34 14 63
24 64 22 2 -2 -2 -29 -10 -60 -7 -31 -11 -59 -8 -62 8 -8 1133 -8 1133 0 0 3
11 67 25 143 14 75 27 148 30 164 3 15 7 37 9 50 2 12 15 85 30 162 14 77 34
192 45 255 11 63 42 234 70 380 27 146 84 454 126 685 42 231 79 429 81 440 2
11 6 31 9 45 8 42 40 216 51 279 3 18 8 43 10 55 6 24 54 288 54 293 0 2 -436
3 -969 3 l-969 0 -12 -72 c-7 -40 -20 -111 -30 -158 -17 -76 -39 -192 -115
-610 -13 -69 -22 -126 -21 -127 1 -1 139 -3 307 -3 318 -1 361 -7 376 -47 15
-39 -61 -392 -113 -522 -52 -131 -147 -255 -249 -324 -144 -98 -289 -132 -447
-104 -302 54 -481 284 -543 697 -34 229 -29 455 15 700 113 630 286 1061 544
1355 56 63 80 88 155 153 42 36 190 109 261 127 95 26 221 24 292 -4 122 -47
225 -184 249 -331 10 -58 7 -221 -5 -275 -8 -36 -18 -80 -23 -98 -4 -16 25
-17 537 -15 l542 3 22 60 c142 393 345 600 621 633 102 12 335 16 335 5 0 -4
-14 -82 -30 -173 -69 -375 -140 -766 -169 -930 -17 -96 -33 -186 -36 -200 -6
-30 -75 -420 -110 -620 -13 -80 -27 -156 -30 -170 -5 -26 -12 -63 -21 -115 -3
-16 -29 -163 -59 -325 -30 -162 -56 -306 -59 -320 -25 -140 -55 -225 -105
-298 -68 -101 -164 -150 -328 -168 l-62 -6 -10 -47 c-6 -25 -14 -62 -17 -81
-72 -415 -91 -536 -85 -542 4 -5 470 -7 1036 -5 l1030 2 37 185 c20 102 39
209 43 239 3 30 14 98 24 151 l18 97 -66 7 c-69 7 -75 8 -131 20 -120 28 -211
122 -213 221 0 31 15 173 24 218 5 29 12 68 15 87 5 31 37 207 104 575 11 61
31 173 45 250 14 77 27 151 30 165 3 14 21 111 40 215 19 105 48 264 65 355
41 220 63 345 106 590 19 113 46 255 59 315 13 61 26 124 29 140 3 17 11 61
17 99 l12 69 126 -7 c220 -12 301 -38 393 -124 55 -51 66 -69 96 -157 28 -81
32 -107 39 -272 l6 -143 203 0 c157 0 204 3 204 13 0 6 16 100 34 207 19 107
64 364 100 570 36 206 85 488 110 625 25 138 46 260 48 273 l3 22 -1870 0
-1870 0 -28 -157 c-15 -87 -29 -167 -31 -178 -3 -11 -5 -26 -5 -32 -1 -7 -40
26 -88 74 -212 210 -477 322 -836 352 -172 15 -259 13 -404 -9z m160 -177 c-7
-2 -21 -2 -30 0 -10 3 -4 5 12 5 17 0 24 -2 18 -5z m194 0 c-20 -2 -52 -2 -70
0 -17 2 0 4 38 4 39 0 53 -2 32 -4z m-294 -10 c-7 -2 -21 -2 -30 0 -10 3 -4 5
12 5 17 0 24 -2 18 -5z m414 1 c-3 -3 -12 -4 -19 -1 -8 3 -5 6 6 6 11 1 17 -2
13 -5z m93 -14 c8 -5 11 -10 5 -10 -5 0 -17 5 -25 10 -8 5 -10 10 -5 10 6 0
17 -5 25 -10z m4320 -45 c0 -22 -68 -456 -90 -580 -11 -60 -39 -216 -61 -345
-22 -129 -42 -246 -44 -260 -3 -14 -7 -51 -11 -82 -7 -58 -7 -58 -40 -58 -32
0 -33 0 -39 58 -31 296 -148 490 -350 582 -100 46 -165 55 -457 65 -189 7
-198 6 -199 -11 0 -11 -2 -30 -5 -44 -15 -86 -45 -249 -49 -270 -7 -31 -54
-302 -61 -350 -3 -19 -7 -42 -9 -50 -3 -8 -7 -33 -10 -55 -6 -41 -20 -119 -29
-165 -14 -65 -16 -78 -21 -115 -3 -22 -10 -60 -15 -85 -5 -25 -19 -99 -30
-165 -33 -190 -88 -498 -115 -640 -13 -71 -58 -321 -99 -555 -128 -723 -134
-769 -110 -870 20 -88 45 -129 115 -194 64 -60 108 -84 205 -112 43 -12 54
-19 50 -32 -3 -9 -14 -69 -26 -132 -12 -63 -23 -123 -26 -132 -5 -17 -54 -18
-851 -18 l-846 0 7 43 c4 23 10 60 13 82 6 46 32 178 36 180 1 0 25 6 52 13
103 26 174 68 259 155 150 151 185 257 282 852 8 47 63 355 74 410 5 28 12 66
15 85 14 89 57 325 60 330 1 3 6 25 9 50 3 25 8 56 11 70 5 24 40 218 49 270
15 87 20 115 36 200 10 52 21 120 25 150 4 30 8 57 10 60 2 3 6 24 9 46 4 22
8 51 11 64 3 13 7 42 10 65 4 22 10 56 15 75 5 19 11 53 14 75 3 22 8 51 11
65 3 14 19 106 36 205 17 99 34 198 39 220 5 22 11 60 15 85 4 25 10 63 15 85
5 22 10 46 10 53 0 11 -58 13 -322 10 -319 -4 -324 -5 -396 -31 -99 -35 -164
-74 -253 -150 -78 -66 -136 -131 -185 -206 l-29 -45 -7 126 c-7 149 -29 263
-70 373 -17 44 -29 96 -29 115 2 39 58 406 67 433 5 16 93 17 1665 17 1449 0
1659 -2 1659 -15z m-3975 -85 c3 -6 -1 -7 -9 -4 -18 7 -21 14 -7 14 6 0 13 -4
16 -10z m-1525 -65 c0 -2 -18 -14 -40 -25 -22 -11 -40 -18 -40 -15 0 2 17 13
38 24 42 23 42 23 42 16z m1651 -22 c13 -16 12 -17 -3 -4 -10 7 -18 15 -18 17
0 8 8 3 21 -13z m-1746 -33 c-3 -5 -12 -10 -18 -10 -7 0 -6 4 3 10 19 12 23
12 15 0z m-45 -25 c0 -2 -10 -9 -22 -15 -22 -11 -22 -10 -4 4 21 17 26 19 26
11z m1876 -27 l29 -33 -32 29 c-18 17 -33 31 -33 33 0 8 8 1 36 -29z m-1926
-2 c0 -2 -8 -10 -17 -17 -16 -13 -17 -12 -4 4 13 16 21 21 21 13z m-40 -30 c0
-2 -12 -11 -27 -20 l-28 -17 24 20 c23 21 31 25 31 17z m-60 -40 c0 -2 -21
-20 -47 -41 l-48 -37 45 41 c45 41 50 45 50 37z m-110 -89 c0 -2 -12 -14 -27
-28 l-28 -24 24 28 c23 25 31 32 31 24z m2290 -67 c6 -11 8 -20 6 -20 -3 0
-10 9 -16 20 -6 11 -8 20 -6 20 3 0 10 -9 16 -20z m-2380 -13 c0 -1 -24 -25
-52 -52 l-53 -50 50 53 c46 48 55 57 55 49z m-128 -134 c-11 -16 -33 -39 -48
-53 -15 -14 -8 -1 17 27 48 58 62 69 31 26z m1108 7 c-8 -5 -19 -10 -25 -10
-5 0 -3 5 5 10 8 5 20 10 25 10 6 0 3 -5 -5 -10z m621 -37 c13 -16 12 -17 -3
-4 -10 7 -18 15 -18 17 0 8 8 3 21 -13z m69 -58 c19 -19 32 -35 29 -35 -3 0
-20 16 -39 35 -19 19 -32 35 -29 35 3 0 20 -16 39 -35z m-1870 1 c0 -2 -8 -10
-17 -17 -16 -13 -17 -12 -4 4 13 16 21 21 21 13z m910 -60 c0 -2 -8 -10 -17
-17 -16 -13 -17 -12 -4 4 13 16 21 21 21 13z m1777 -58 c-3 -7 -5 -2 -5 12 0
14 2 19 5 13 2 -7 2 -19 0 -25z m-1827 19 c0 -2 -17 -19 -37 -38 l-38 -34 34
38 c33 34 41 42 41 34z m-950 -21 c0 -2 -8 -10 -17 -17 -16 -13 -17 -12 -4 4
13 16 21 21 21 13z m2787 -48 c-3 -8 -6 -5 -6 6 -1 11 2 17 5 13 3 -3 4 -12 1
-19z m-2843 -28 c-15 -22 -29 -40 -31 -40 -5 0 3 15 29 53 30 43 31 32 2 -13z
m926 16 c0 -2 -8 -10 -17 -17 -16 -13 -17 -12 -4 4 13 16 21 21 21 13z m-40
-39 c0 -2 -10 -12 -22 -23 l-23 -19 19 23 c18 21 26 27 26 19z m1967 -19 c-3
-8 -6 -5 -6 6 -1 11 2 17 5 13 3 -3 4 -12 1 -19z m-2897 -28 c-6 -11 -13 -20
-16 -20 -2 0 0 9 6 20 6 11 13 20 16 20 2 0 0 -9 -6 -20z m2897 -22 c-3 -7 -5
-2 -5 12 0 14 2 19 5 13 2 -7 2 -19 0 -25z m-2017 8 c0 -2 -8 -10 -17 -17 -16
-13 -17 -12 -4 4 13 16 21 21 21 13z m2017 -143 c-2 -16 -4 -3 -4 27 0 30 2
43 4 28 2 -16 2 -40 0 -55z m-660 35 c-3 -8 -6 -5 -6 6 -1 11 2 17 5 13 3 -3
4 -12 1 -19z m-2334 -53 c-9 -19 -18 -33 -21 -31 -4 5 26 66 33 66 3 0 -3 -16
-12 -35z m-40 -80 c-9 -19 -18 -33 -21 -31 -4 5 26 66 33 66 3 0 -3 -16 -12
-35z m3027 -60 l0 -25 -332 2 -333 3 328 2 c319 3 327 4 327 23 0 11 2 20 5
20 3 0 5 -11 5 -25z m-2219 -18 c-10 -9 -11 -8 -5 6 3 10 9 15 12 12 3 -3 0
-11 -7 -18z m-860 -34 c-12 -20 -14 -14 -5 12 4 9 9 14 11 11 3 -2 0 -13 -6
-23z m802 -78 c-3 -9 -8 -14 -10 -11 -3 3 -2 9 2 15 9 16 15 13 8 -4z m-42
-98 c-10 -9 -11 -8 -5 6 3 10 9 15 12 12 3 -3 0 -11 -7 -18z m-840 -24 c-12
-20 -14 -14 -5 12 4 9 9 14 11 11 3 -2 0 -13 -6 -23z m-71 -220 c-11 -17 -11
-17 -6 0 3 10 6 24 7 30 0 9 2 9 5 0 3 -7 0 -20 -6 -30z m1928 -280 c-10 -2
-28 -2 -40 0 -13 2 -5 4 17 4 22 1 32 -1 23 -4z m925 0 c-167 -2 -439 -2 -605
0 -167 1 -31 2 302 2 333 0 469 -1 303 -2z m500 0 c-34 -2 -93 -2 -130 0 -37
2 -9 3 62 3 72 0 102 -1 68 -3z m44 -45 c-3 -8 -6 -5 -6 6 -1 11 2 17 5 13 3
-3 4 -12 1 -19z m-10 -50 c-3 -8 -6 -5 -6 6 -1 11 2 17 5 13 3 -3 4 -12 1 -19z
m-10 -60 c-3 -7 -5 -2 -5 12 0 14 2 19 5 13 2 -7 2 -19 0 -25z m-2670 -10 c-3
-7 -5 -2 -5 12 0 14 2 19 5 13 2 -7 2 -19 0 -25z m2660 -30 c-3 -8 -6 -5 -6 6
-1 11 2 17 5 13 3 -3 4 -12 1 -19z m-10 -60 c-3 -8 -6 -5 -6 6 -1 11 2 17 5
13 3 -3 4 -12 1 -19z m-2670 -20 c-3 -8 -6 -5 -6 6 -1 11 2 17 5 13 3 -3 4
-12 1 -19z m-820 -50 c-3 -7 -5 -2 -5 12 0 14 2 19 5 13 2 -7 2 -19 0 -25z
m810 -10 c-3 -8 -6 -5 -6 6 -1 11 2 17 5 13 3 -3 4 -12 1 -19z m-820 -65 c-3
-10 -5 -4 -5 12 0 17 2 24 5 18 2 -7 2 -21 0 -30z m810 -10 c-3 -10 -5 -4 -5
12 0 17 2 24 5 18 2 -7 2 -21 0 -30z m-820 -55 c-3 -7 -5 -2 -5 12 0 14 2 19
5 13 2 -7 2 -19 0 -25z m810 -20 c-3 -8 -6 -5 -6 6 -1 11 2 17 5 13 3 -3 4
-12 1 -19z m2650 -50 c-3 -7 -5 -2 -5 12 0 14 2 19 5 13 2 -7 2 -19 0 -25z
m-2660 -45 c-3 -10 -5 -2 -5 17 0 19 2 27 5 18 2 -10 2 -26 0 -35z m2650 -5
c-3 -7 -5 -2 -5 12 0 14 2 19 5 13 2 -7 2 -19 0 -25z m-1440 15 c-20 -2 -52
-2 -70 0 -17 2 0 4 38 4 39 0 53 -2 32 -4z m101 0 c-10 -2 -28 -2 -40 0 -13 2
-5 4 17 4 22 1 32 -1 23 -4z m180 0 c-16 -2 -40 -2 -55 0 -16 2 -3 4 27 4 30
0 43 -2 28 -4z m107 -13 c25 -11 -1 -11 -35 0 -20 6 -21 8 -5 8 11 0 29 -3 40
-8z m109 -59 c-2 -3 -12 3 -22 13 -16 17 -16 18 5 5 12 -7 20 -15 17 -18z
m-2527 -13 c-3 -7 -5 -2 -5 12 0 14 2 19 5 13 2 -7 2 -19 0 -25z m810 -25 c-3
-10 -5 -2 -5 17 0 19 2 27 5 18 2 -10 2 -26 0 -35z m1770 -55 c-3 -8 -6 -5 -6
6 -1 11 2 17 5 13 3 -3 4 -12 1 -19z m860 -10 c-3 -8 -6 -5 -6 6 -1 11 2 17 5
13 3 -3 4 -12 1 -19z m-2640 -85 c-2 -16 -4 -3 -4 27 0 30 2 43 4 28 2 -16 2
-40 0 -55z m2630 25 c-3 -8 -6 -5 -6 6 -1 11 2 17 5 13 3 -3 4 -12 1 -19z
m-850 -80 c-3 -7 -5 -2 -5 12 0 14 2 19 5 13 2 -7 2 -19 0 -25z m-1770 -130
c-2 -13 -4 -5 -4 17 -1 22 1 32 4 23 2 -10 2 -28 0 -40z m-804 -68 c3 -71 2
-89 -3 -55 -8 51 -13 172 -6 164 2 -2 6 -51 9 -109z m2544 8 c-3 -8 -6 -5 -6
6 -1 11 2 17 5 13 3 -3 4 -12 1 -19z m-20 -100 c-3 -8 -6 -5 -6 6 -1 11 2 17
5 13 3 -3 4 -12 1 -19z m-1690 -40 c-3 -8 -6 -5 -6 6 -1 11 2 17 5 13 3 -3 4
-12 1 -19z m-820 -40 c-3 -8 -6 -5 -6 6 -1 11 2 17 5 13 3 -3 4 -12 1 -19z
m3330 0 c-3 -8 -6 -5 -6 6 -1 11 2 17 5 13 3 -3 4 -12 1 -19z m-10 -60 c-3 -7
-5 -2 -5 12 0 14 2 19 5 13 2 -7 2 -19 0 -25z m-3283 -113 c5 -22 4 -26 -4
-15 -5 8 -10 24 -10 34 0 26 6 18 14 -19z m3263 3 c-3 -8 -6 -5 -6 6 -1 11 2
17 5 13 3 -3 4 -12 1 -19z m-2342 -144 c9 -15 12 -23 6 -20 -11 7 -35 46 -28
46 3 0 12 -12 22 -26z m1395 12 c0 -2 -8 -10 -17 -17 -16 -13 -17 -12 -4 4 13
16 21 21 21 13z m897 -138 c-3 -7 -5 -2 -5 12 0 14 2 19 5 13 2 -7 2 -19 0
-25z m-1007 -2 c0 -2 -8 -10 -17 -17 -16 -13 -17 -12 -4 4 13 16 21 21 21 13z
m-40 -39 c0 -2 -15 -16 -32 -33 l-33 -29 29 33 c28 30 36 37 36 29z m-1024
-89 c4 -7 -9 1 -29 16 -20 16 -37 30 -37 33 0 7 58 -36 66 -49z m924 8 c0 -2
-8 -10 -17 -17 -16 -13 -17 -12 -4 4 13 16 21 21 21 13z m1117 -48 c-3 -7 -5
-2 -5 12 0 14 2 19 5 13 2 -7 2 -19 0 -25z m-2962 -104 c9 -15 12 -23 6 -20
-11 7 -35 46 -28 46 3 0 12 -12 22 -26z m1192 10 c-3 -3 -12 -4 -19 -1 -8 3
-5 6 6 6 11 1 17 -2 13 -5z m370 0 c-3 -3 -12 -4 -19 -1 -8 3 -5 6 6 6 11 1
17 -2 13 -5z m1380 -16 c-3 -8 -6 -5 -6 6 -1 11 2 17 5 13 3 -3 4 -12 1 -19z
m-1694 5 c-7 -2 -19 -2 -25 0 -7 3 -2 5 12 5 14 0 19 -2 13 -5z m54 -9 c-3 -3
-12 -4 -19 -1 -8 3 -5 6 6 6 11 1 17 -2 13 -5z m160 0 c-3 -3 -12 -4 -19 -1
-8 3 -5 6 6 6 11 1 17 -2 13 -5z m-1417 -54 c12 -16 19 -30 16 -30 -2 0 -14
14 -26 30 -12 17 -19 30 -16 30 2 0 14 -13 26 -30z m2887 -2 c-3 -7 -5 -2 -5
12 0 14 2 19 5 13 2 -7 2 -19 0 -25z m-2817 -83 c13 -14 21 -25 18 -25 -2 0
-15 11 -28 25 -13 14 -21 25 -18 25 2 0 15 -11 28 -25z m51 -52 c13 -16 12
-17 -3 -4 -10 7 -18 15 -18 17 0 8 8 3 21 -13z m59 -58 c19 -19 32 -35 29 -35
-3 0 -20 16 -39 35 -19 19 -32 35 -29 35 3 0 20 -16 39 -35z m1880 -28 c0 -2
-10 -12 -22 -23 l-23 -19 19 23 c18 21 26 27 26 19z m57 -109 c-3 -7 -5 -2 -5
12 0 14 2 19 5 13 2 -7 2 -19 0 -25z m-1727 -24 c0 -2 -9 0 -20 6 -11 6 -20
13 -20 16 0 2 9 0 20 -6 11 -6 20 -13 20 -16z m1717 -16 c-3 -8 -6 -5 -6 6 -1
11 2 17 5 13 3 -3 4 -12 1 -19z m-1390 -124 c-3 -3 -12 -4 -19 -1 -8 3 -5 6 6
6 11 1 17 -2 13 -5z m820 0 c-3 -3 -12 -4 -19 -1 -8 3 -5 6 6 6 11 1 17 -2 13
-5z m-134 -31 c-7 -2 -21 -2 -30 0 -10 3 -4 5 12 5 17 0 24 -2 18 -5z m1045 0
c-71 -2 -185 -2 -255 0 -71 1 -13 3 127 3 140 0 198 -2 128 -3z m159 1 c-3 -3
-12 -4 -19 -1 -8 3 -5 6 6 6 11 1 17 -2 13 -5z m146 -1 c-23 -2 -64 -2 -90 0
-26 2 -7 3 42 3 50 0 71 -1 48 -3z m-1846 -9 c-3 -3 -12 -4 -19 -1 -8 3 -5 6
6 6 11 1 17 -2 13 -5z m436 -1 c-7 -2 -19 -2 -25 0 -7 3 -2 5 12 5 14 0 19 -2
13 -5z m-345 -10 c-10 -2 -26 -2 -35 0 -10 3 -2 5 17 5 19 0 27 -2 18 -5z
m255 0 c-7 -2 -21 -2 -30 0 -10 3 -4 5 12 5 17 0 24 -2 18 -5z"/>
</g>
</svg>
